# xmcd CD database file
#
# Track frame offsets:
#	150
#	17656
#	47957
#	60037
#	67041
#	91358
#	118099
#	141616
#	169613
#	182466
#	213628
#	232084
#	247471
#	273750
#	292500
#
# Disc length: 4142 seconds
#
# Revision: 0
# Processed by: cddbd v1.4PL0 Copyright (c) Steve Scherf et al.
# Submitted via: CDex 1.50
#
DISCID=dd102c0f
DTITLE=Ketil Bjornstad - Grace
DYEAR=2002
DGENRE=Jazz
TTITLE0=No man is an Iland...
TTITLE1=Lovers' infiniteness
TTITLE2=Bait
TTITLE3=White
TTITLE4=Anniversary
TTITLE5=Love's growth
TTITLE6=Song
TTITLE7=Love's usury
TTITLE8=Naked
TTITLE9=Grace
TTITLE10=Indifferent
TTITLE11=Mystery
TTITLE12=Canonization
TTITLE13=Take a flat map...
TTITLE14=No man is an Iland...
EXTD=YEAR: 2002
EXTT0=
EXTT1=
EXTT2=
EXTT3=
EXTT4=
EXTT5=
EXTT6=
EXTT7=
EXTT8=
EXTT9=
EXTT10=
EXTT11=
EXTT12=
EXTT13=
EXTT14=
PLAYORDER=
